<svg version="1.1" xmlns="http://www.w3.org/2000/svg" viewBox="0 0 525.403595354923 171.38454857357692" width="525.403595354923" height="171.38454857357692" class="excalidraw-svg"><!-- svg-source:excalidraw --><metadata></metadata><defs><style class="style-fonts">
      </style></defs><rect x="0" y="0" width="525.403595354923" height="171.38454857357692" fill="#ffffff"></rect><g stroke-linecap="round"><g transform="translate(44.72282742077823 27.866180118314787) rotate(0 98.113326818784 -0.6584787034817055)"><path d="M0 0 C69.88 -1.7, 139.02 -2.18, 196.23 -1.32 M0 0 C52.88 -3.2, 105.07 -2.53, 196.23 -1.32" stroke="#e03131" stroke-width="1" fill="none"></path></g></g><mask></mask><g stroke-linecap="round"><g transform="translate(260.70384216279945 43.66966900187754) rotate(0 83.62679534218508 49.38590276113291)"><path d="M0 0 C-1.09 14.57, -0.14 26.6, -1.32 46.09 M0 0 C-0.85 11.97, -1.58 24.41, -1.32 46.09 M-1.32 46.09 C22.72 45.18, 49.28 47.66, 119.84 46.09 M-1.32 46.09 C33.79 47.36, 70.63 47.22, 119.84 46.09 M119.84 46.09 C120.47 58.5, 121.53 72.89, 121.16 98.77 M119.84 46.09 C120.18 61.39, 120.75 76.36, 121.16 98.77 M121.16 98.77 C131.57 96.89, 146.22 99.36, 168.57 98.77 M121.16 98.77 C133.89 98.88, 146.67 99.74, 168.57 98.77" stroke="#e03131" stroke-width="1" fill="none"></path></g></g><mask></mask><g stroke-linecap="round"><g transform="translate(495.5069897324347 35.61970392017247) rotate(0 -0.6597118096680532 52.22359450270187)"><path d="M0 0 C-0.51 22.29, 0.13 45.84, -1.32 104.45 M0 0 C-1.18 27.78, -1.02 56.15, -1.32 104.45" stroke="#1971c2" stroke-width="0.5" fill="none"></path></g></g><mask></mask><g stroke-linecap="round"><g transform="translate(371.4811695148378 86.50423189716412) rotate(0 1.319423619336117 26.78133051420616)"><path d="M0 0 C1.11 10.96, 0.48 22.18, 2.64 53.56 M0 0 C1.3 18.17, 2.55 36.71, 2.64 53.56" stroke="#1971c2" stroke-width="0.5" fill="none"></path></g></g><mask></mask><g stroke-linecap="round"><g transform="translate(254.05246739392192 28.924371291621128) rotate(0 1.319423619336117 52.8931277655571)"><path d="M0 0 C0.39 24.79, 2.55 52.22, 2.64 105.79 M0 0 C1.89 26.28, 1.8 53.02, 2.64 105.79" stroke="#1971c2" stroke-width="0.5" fill="none"></path></g></g><mask></mask><g stroke-linecap="round"><g transform="translate(140.58203613101432 90.52143147429501) rotate(0 1.3194236193361206 22.76413093707515)"><path d="M0 0 C1.07 11.65, 0.81 23.9, 2.64 45.53 M0 0 C0.88 11.87, 1.37 23.89, 2.64 45.53" stroke="#1971c2" stroke-width="0.5" fill="none"></path></g></g><mask></mask><g stroke-linecap="round"><g transform="translate(32.38929934545126 40.975970023013815) rotate(0 0 48.8759281884262)"><path d="M0 0 C-0.52 23.29, -0.29 46.4, 0 97.75 M0 0 C-0.38 25.67, -0.41 52.32, 0 97.75" stroke="#1971c2" stroke-width="0.5" fill="none"></path></g></g><mask></mask><g stroke-linecap="round"><g transform="translate(44.26411191947636 81.17007491306981) rotate(0 216.3854735711262 0)"><path d="M0 0 C125.73 -0.16, 251.84 -0.94, 432.77 0 M0 0 C119.07 0.71, 238.44 0.47, 432.77 0" stroke="#1971c2" stroke-width="0.5" fill="none"></path></g></g><mask></mask><g stroke-linecap="round"><g transform="translate(37.666993822795575 35.61970392017247) rotate(0 222.32287985813878 -1.3390665257103365)"><path d="M0 0 C152.23 -2.6, 304.92 -3.92, 444.65 -2.68 M0 0 C125.28 -2.04, 250.79 -2.44, 444.65 -2.68" stroke="#1971c2" stroke-width="0.5" fill="none"></path></g></g><mask></mask><g stroke-linecap="round"><g transform="translate(49.541806396820675 138.727826399866) rotate(0 215.06604995179003 -0.6695332628551114)"><path d="M0 0 C162.08 -0.95, 324.47 -1.49, 430.13 -1.34 M0 0 C155.56 -0.34, 310.81 -1.25, 430.13 -1.34" stroke="#1971c2" stroke-width="0.5" fill="none"></path></g></g><mask></mask><g stroke-linecap="round" transform="translate(10 14.694085744503582) rotate(0 18.87626687261718 18.639522596579923)"><path d="M0.22 0.14 L38.45 0.93 L37.6 37.51 L0.87 37.4" stroke="none" stroke-width="0" fill="#a5d8ff"></path><path d="M0 0 C11.21 -0.35, 23.4 -0.17, 37.75 0 M0 0 C11.56 -0.14, 23.99 0.33, 37.75 0 M37.75 0 C38.01 15.1, 36.87 28.07, 37.75 37.28 M37.75 0 C37.6 12.45, 37.61 24.31, 37.75 37.28 M37.75 37.28 C23.18 36.67, 9.66 36.54, 0 37.28 M37.75 37.28 C28.03 36.97, 18.93 37.2, 0 37.28 M0 37.28 C0.52 24.79, 0.32 11.13, 0 0 M0 37.28 C0.56 25.19, -0.31 14.52, 0 0" stroke="#1971c2" stroke-width="0.5" fill="none"></path></g><g stroke-linecap="round" transform="translate(12.5508468746782 66.47053740167007) rotate(0 18.87626687261718 18.639522596579923)"><path d="M0.7 0.93 L37.6 0.24 L38.63 37.4 L-0.87 36.28" stroke="none" stroke-width="0" fill="#a5d8ff"></path><path d="M0 0 C10.46 -0.16, 19.82 0.09, 37.75 0 M0 0 C14.89 0.49, 29.55 -0.33, 37.75 0 M37.75 0 C37.06 11.31, 38.07 23.91, 37.75 37.28 M37.75 0 C37.42 8.36, 38.01 16.34, 37.75 37.28 M37.75 37.28 C27.77 36.52, 17.52 37.6, 0 37.28 M37.75 37.28 C25.89 37.06, 14.65 36.83, 0 37.28 M0 37.28 C0.12 27.85, 0.04 18.13, 0 0 M0 37.28 C-0.59 26.87, -0.05 15.64, 0 0" stroke="#1971c2" stroke-width="0.5" fill="none"></path></g><g stroke-linecap="round" transform="translate(14.591524374420487 122.38910519140995) rotate(0 18.87626687261718 18.639522596579923)"><path d="M-0.15 0.24 L38.63 0.12 L36.89 36.28 L-0.64 37.24" stroke="none" stroke-width="0" fill="#a5d8ff"></path><path d="M0 0 C9.86 0.06, 20.3 -0.5, 37.75 0 M0 0 C11.9 -0.51, 23.04 0, 37.75 0 M37.75 0 C37.86 14.92, 36.83 28.33, 37.75 37.28 M37.75 0 C38.01 13.53, 37.47 27.14, 37.75 37.28 M37.75 37.28 C27.93 37.57, 19.27 36.33, 0 37.28 M37.75 37.28 C29.15 36.92, 19.81 37.44, 0 37.28 M0 37.28 C0.08 23.59, -0.13 12.01, 0 0 M0 37.28 C0.27 29.75, 0.51 22.54, 0 0" stroke="#1971c2" stroke-width="0.5" fill="none"></path></g><g stroke-linecap="round" transform="translate(125.91912480387373 63.11551818287694) rotate(0 18.87626687261718 18.639522596579923)"><path d="M0.87 0.12 L36.89 -1 L37.11 37.24 L-0.14 37.26" stroke="none" stroke-width="0" fill="#a5d8ff"></path><path d="M0 0 C11.26 -0.55, 20.85 0.64, 37.75 0 M0 0 C15.14 0.31, 30.58 -0.26, 37.75 0 M37.75 0 C37.02 9.21, 38.48 18.93, 37.75 37.28 M37.75 0 C37.69 11.61, 37.61 23.74, 37.75 37.28 M37.75 37.28 C29.01 36.54, 19.43 36.98, 0 37.28 M37.75 37.28 C26.89 37.36, 16.79 37.26, 0 37.28 M0 37.28 C-0.11 27.58, -0.98 15.26, 0 0 M0 37.28 C0.31 23.2, -0.12 8.32, 0 0" stroke="#1971c2" stroke-width="0.5" fill="none"></path></g><g stroke-linecap="round" transform="translate(127.95980230361579 119.03408597261682) rotate(0 18.87626687261718 18.639522596579923)"><path d="M-0.87 -1 L37.11 -0.04 L37.61 37.26 L-0.25 37.56" stroke="none" stroke-width="0" fill="#a5d8ff"></path><path d="M0 0 C11.42 0.74, 23.75 0.92, 37.75 0 M0 0 C9.31 -0.45, 17.56 0.05, 37.75 0 M37.75 0 C38.29 12.59, 37.8 26.83, 37.75 37.28 M37.75 0 C37.41 9.7, 37.35 19.26, 37.75 37.28 M37.75 37.28 C24.18 36.74, 11.74 37.61, 0 37.28 M37.75 37.28 C29.11 37.45, 19.87 37.41, 0 37.28 M0 37.28 C-0.94 27.54, 0.92 19.74, 0 0 M0 37.28 C-0.21 25.69, 0.31 13.92, 0 0" stroke="#1971c2" stroke-width="0.5" fill="none"></path></g><g stroke-linecap="round" transform="translate(239.5215566127722 14.017199577131123) rotate(0 18.87626687261718 18.639522596579923)"><path d="M-0.14 -0.02 L37.5 0.28 L36.93 36.84 L0.53 37.57" stroke="none" stroke-width="0" fill="#a5d8ff"></path><path d="M0 0 C13.08 -0.01, 27.85 0.71, 37.75 0 M0 0 C8.69 -0.44, 16.62 0.29, 37.75 0 M37.75 0 C37.41 9.01, 37.2 18.27, 37.75 37.28 M37.75 0 C37.84 10.74, 37.22 21.06, 37.75 37.28 M37.75 37.28 C27.22 36.86, 18.38 37.88, 0 37.28 M37.75 37.28 C25.37 37.26, 14.04 36.82, 0 37.28 M0 37.28 C-0.03 30, 0.76 21.16, 0 0 M0 37.28 C-0.6 24.72, -0.48 13.13, 0 0" stroke="#1971c2" stroke-width="0.5" fill="none"></path></g><g stroke-linecap="round" transform="translate(238.1141326294421 65.79365123429739) rotate(0 18.87626687261718 18.639522596579923)"><path d="M-0.25 0.28 L36.93 -0.44 L38.28 37.57 L0.65 37.29" stroke="none" stroke-width="0" fill="#a5d8ff"></path><path d="M0 0 C14.79 0.84, 28.06 -0.42, 37.75 0 M0 0 C12.01 0.49, 24.29 0.24, 37.75 0 M37.75 0 C37.09 13.26, 37.55 26.95, 37.75 37.28 M37.75 0 C37.42 8.87, 37.64 18.3, 37.75 37.28 M37.75 37.28 C25 37.69, 11.63 37.02, 0 37.28 M37.75 37.28 C26.44 36.78, 13.82 37.71, 0 37.28 M0 37.28 C0.9 25.11, 0.21 14.11, 0 0 M0 37.28 C-0.16 25.63, 0.09 14.01, 0 0" stroke="#1971c2" stroke-width="0.5" fill="none"></path></g><g stroke-linecap="round" transform="translate(240.15481012918417 121.7122190240375) rotate(0 18.87626687261718 18.639522596579923)"><path d="M-0.82 -0.44 L38.28 0.3 L38.4 37.29 L0.06 36.84" stroke="none" stroke-width="0" fill="#a5d8ff"></path><path d="M0 0 C11.09 -0.56, 23.95 0.34, 37.75 0 M0 0 C8.13 -0.03, 17.1 -0.32, 37.75 0 M37.75 0 C37.51 9.07, 37.11 19.87, 37.75 37.28 M37.75 0 C37.41 11.43, 37.84 22.73, 37.75 37.28 M37.75 37.28 C28.57 37.21, 19.09 36.76, 0 37.28 M37.75 37.28 C26.33 37.55, 15.88 37.17, 0 37.28 M0 37.28 C0.06 24.36, -0.05 8.82, 0 0 M0 37.28 C0.05 29.8, -0.01 22.49, 0 0" stroke="#1971c2" stroke-width="0.5" fill="none"></path></g><g stroke-linecap="round" transform="translate(354.223411131022 64.45458470858739) rotate(0 18.87626687261718 18.639522596579923)"><path d="M0.53 0.3 L38.4 0.01 L37.82 36.84 L-0.79 37.71" stroke="none" stroke-width="0" fill="#a5d8ff"></path><path d="M0 0 C14.85 0.58, 28.42 -0.42, 37.75 0 M0 0 C14.24 -0.23, 27.59 -0.33, 37.75 0 M37.75 0 C37.2 9.59, 37.82 17.52, 37.75 37.28 M37.75 0 C37.92 8.41, 37.42 17.67, 37.75 37.28 M37.75 37.28 C24.62 36.63, 11.18 38.13, 0 37.28 M37.75 37.28 C30.17 37.52, 22.71 37.91, 0 37.28 M0 37.28 C0.08 25.8, -1.04 15.41, 0 0 M0 37.28 C-0.1 26.4, -0.39 15.02, 0 0" stroke="#1971c2" stroke-width="0.5" fill="none"></path></g><g stroke-linecap="round" transform="translate(356.26408863076426 120.37315249832704) rotate(0 18.87626687261718 18.639522596579923)"><path d="M0.65 0.01 L37.82 -0.44 L36.96 37.71 L-0.38 38.27" stroke="none" stroke-width="0" fill="#a5d8ff"></path><path d="M0 0 C9.04 -0.59, 20.33 -0.57, 37.75 0 M0 0 C11.86 -0.22, 23.84 0.01, 37.75 0 M37.75 0 C37.75 7.9, 37 17.06, 37.75 37.28 M37.75 0 C37.59 10.68, 38.1 21.05, 37.75 37.28 M37.75 37.28 C26.95 38.05, 15.36 36.3, 0 37.28 M37.75 37.28 C23.38 37.77, 8.23 37.42, 0 37.28 M0 37.28 C-1.02 22.2, -0.07 8.26, 0 0 M0 37.28 C-0.36 25.95, 0.31 15.21, 0 0" stroke="#1971c2" stroke-width="0.5" fill="none"></path></g><g stroke-linecap="round" transform="translate(477.0178080932767 10) rotate(0 18.87626687261718 18.639522596579923)"><path d="M0.06 -0.44 L36.96 0.43 L37.38 38.27 L0.2 37.08" stroke="none" stroke-width="0" fill="#a5d8ff"></path><path d="M0 0 C13.91 -0.38, 26.65 0.8, 37.75 0 M0 0 C9.62 0.05, 19.44 -0.15, 37.75 0 M37.75 0 C37.11 12.37, 37.58 25.98, 37.75 37.28 M37.75 0 C37.91 8.89, 37.58 17.63, 37.75 37.28 M37.75 37.28 C27.79 36.59, 20.66 37.67, 0 37.28 M37.75 37.28 C25.82 37.57, 14.48 37.51, 0 37.28 M0 37.28 C0.14 29.18, 0.17 21.11, 0 0 M0 37.28 C0.42 25.19, 0.48 12.82, 0 0" stroke="#1971c2" stroke-width="0.5" fill="none"></path></g><g stroke-linecap="round" transform="translate(475.6103841099464 61.77645165716672) rotate(0 18.87626687261718 18.639522596579923)"><path d="M-0.79 0.43 L37.38 0.99 L37.95 37.08 L0.36 37.16" stroke="none" stroke-width="0" fill="#a5d8ff"></path><path d="M0 0 C9.64 0.79, 18.51 -0.3, 37.75 0 M0 0 C8.76 -0.24, 18.38 0.07, 37.75 0 M37.75 0 C37.44 8.61, 36.99 15.73, 37.75 37.28 M37.75 0 C37.77 12.74, 37.54 25.33, 37.75 37.28 M37.75 37.28 C23.99 37.34, 8.56 37.82, 0 37.28 M37.75 37.28 C23.36 37.38, 7.66 36.83, 0 37.28 M0 37.28 C-0.01 28.24, 0.29 18.87, 0 0 M0 37.28 C0.22 27.73, -0.07 17.95, 0 0" stroke="#1971c2" stroke-width="0.5" fill="none"></path></g><g stroke-linecap="round" transform="translate(477.65106160968867 117.69501944690637) rotate(0 18.87626687261718 18.639522596579923)"><path d="M-0.38 0.99 L37.95 -0.2 L38.11 37.16 L0.34 37.25" stroke="none" stroke-width="0" fill="#a5d8ff"></path><path d="M0 0 C9.14 -0.52, 18.46 -0.67, 37.75 0 M0 0 C11.04 0.15, 21.25 -0.23, 37.75 0 M37.75 0 C37.07 9.25, 38.12 20.04, 37.75 37.28 M37.75 0 C37.41 11.88, 38.16 23.37, 37.75 37.28 M37.75 37.28 C29.81 38.02, 22.52 37.17, 0 37.28 M37.75 37.28 C25.1 36.8, 13 37.28, 0 37.28 M0 37.28 C0.29 25.81, -0.43 16.5, 0 0 M0 37.28 C-0.09 24.77, -0.52 12.92, 0 0" stroke="#1971c2" stroke-width="0.5" fill="none"></path></g><g stroke-linecap="round" transform="translate(71.56767172362402 122.76643685470663) rotate(0 18.87626687261718 18.639522596579923)"><path d="M0.2 -0.2 L38.11 -0.12 L38.09 37.25 L0.32 38.13" stroke="none" stroke-width="0" fill="#a5d8ff"></path><path d="M0 0 C13.39 -0.47, 27.83 -0.59, 37.75 0 M0 0 C8.91 -0.35, 18.44 -0.11, 37.75 0 M37.75 0 C38.04 13.5, 37.83 25.83, 37.75 37.28 M37.75 0 C38.08 11.12, 37.21 23.66, 37.75 37.28 M37.75 37.28 C26.51 37.26, 13.64 38.28, 0 37.28 M37.75 37.28 C25.65 37.07, 14.13 37.08, 0 37.28 M0 37.28 C-0.49 27.56, 0.24 17.43, 0 0 M0 37.28 C-0.41 26.28, -0.2 15.35, 0 0" stroke="#1971c2" stroke-width="0.5" fill="none"></path></g><g stroke-linecap="round" transform="translate(182.39925574785957 124.10550338041708) rotate(0 18.87626687261718 18.639522596579923)"><path d="M0.36 -0.12 L38.09 -0.03 L38.07 38.13 L0.74 37.89" stroke="none" stroke-width="0" fill="#a5d8ff"></path><path d="M0 0 C9.72 -0.56, 19.17 0.52, 37.75 0 M0 0 C11.48 0.03, 23.59 -0.2, 37.75 0 M37.75 0 C38.03 9.11, 37.94 17.92, 37.75 37.28 M37.75 0 C37.49 11.3, 38.03 21.78, 37.75 37.28 M37.75 37.28 C24.02 38.12, 9.93 36.38, 0 37.28 M37.75 37.28 C30.12 37.26, 22.5 37.41, 0 37.28 M0 37.28 C0.38 29.81, 0.09 21.12, 0 0 M0 37.28 C-0.04 28.23, 0.25 18.1, 0 0" stroke="#1971c2" stroke-width="0.5" fill="none"></path></g><g stroke-linecap="round" transform="translate(297.1891106301032 122.76643685470708) rotate(0 18.87626687261718 18.639522596579923)"><path d="M0.34 -0.03 L38.07 0.85 L38.49 37.89 L-0.56 38.19" stroke="none" stroke-width="0" fill="#a5d8ff"></path><path d="M0 0 C8.75 0.54, 18.66 -0.7, 37.75 0 M0 0 C9.09 -0.29, 17.43 0.24, 37.75 0 M37.75 0 C37.9 12.46, 37.7 27.04, 37.75 37.28 M37.75 0 C37.7 7.67, 37.94 15.67, 37.75 37.28 M37.75 37.28 C27.12 36.58, 15.26 36.8, 0 37.28 M37.75 37.28 C26.46 37.42, 15.02 37.06, 0 37.28 M0 37.28 C-0.05 24.2, -0.5 10.2, 0 0 M0 37.28 C0.17 24.4, 0.25 11.65, 0 0" stroke="#1971c2" stroke-width="0.5" fill="none"></path></g><g stroke-linecap="round" transform="translate(415.9347701579827 121.44947944774322) rotate(0 18.87626687261718 18.639522596579923)"><path d="M0 0 L37.75 0 L37.75 37.28 L0 37.28" stroke="none" stroke-width="0" fill="#ffc9c9"></path><path d="M0 0 C10.58 0, 21.16 0, 37.75 0 M0 0 C14.15 0, 28.3 0, 37.75 0 M37.75 0 C37.75 13.93, 37.75 27.87, 37.75 37.28 M37.75 0 C37.75 7.46, 37.75 14.93, 37.75 37.28 M37.75 37.28 C27.77 37.28, 17.78 37.28, 0 37.28 M37.75 37.28 C27.19 37.28, 16.63 37.28, 0 37.28 M0 37.28 C0 29.68, 0 22.08, 0 0 M0 37.28 C0 27.71, 0 18.15, 0 0" stroke="#e03131" stroke-width="4" fill="none"></path></g></svg>