<?xml version="1.0" standalone="no"?>
<!DOCTYPE svg PUBLIC "-//W3C//DTD SVG 20010904//EN"
 "http://www.w3.org/TR/2001/REC-SVG-20010904/DTD/svg10.dtd">
<svg version="1.0" xmlns="http://www.w3.org/2000/svg"
 width="512.000000pt" height="512.000000pt" viewBox="0 0 512.000000 512.000000"
 preserveAspectRatio="xMidYMid meet">

<g transform="translate(0.000000,512.000000) scale(0.100000,-0.100000)"
fill="#000000" stroke="none">
<path d="M1693 5095 c-75 -34 -113 -96 -113 -181 0 -35 4 -74 9 -87 14 -35 69
-95 105 -114 47 -25 142 -22 193 5 39 20 93 77 93 98 0 5 4 15 9 22 19 31 154
-68 239 -175 59 -73 104 -150 149 -252 35 -82 33 -90 -22 -91 -57 -1 -211 -38
-286 -69 -42 -17 -94 -47 -117 -66 l-40 -35 -245 0 c-237 0 -245 -1 -278 -23
-45 -30 -83 -104 -105 -202 -23 -107 -23 -429 0 -650 29 -277 88 -638 157
-965 l22 -100 1097 0 1097 0 22 100 c115 542 174 989 174 1330 0 283 -30 414
-113 484 l-32 26 -250 0 -250 0 -34 30 c-94 82 -280 137 -508 149 l-118 6 -24
63 c-96 257 -259 463 -436 552 -44 22 -87 40 -94 40 -8 0 -14 4 -14 10 0 5
-15 26 -32 46 -66 75 -161 93 -255 49z m412 -1346 c90 -28 182 -114 214 -202
45 -123 19 -254 -69 -350 -131 -144 -339 -151 -484 -17 -25 23 -58 68 -73 99
-24 49 -28 68 -28 146 0 78 4 97 28 147 39 80 121 152 200 177 80 26 130 26
212 0z m1121 0 c57 -18 77 -31 129 -82 75 -75 105 -145 105 -242 0 -87 -29
-162 -90 -228 -131 -144 -339 -151 -484 -17 -25 23 -58 68 -73 99 -24 49 -28
68 -28 146 0 78 4 97 28 147 39 80 121 152 200 177 81 26 130 26 213 0z m-266
-1074 l0 -125 -400 0 -400 0 0 125 0 125 400 0 400 0 0 -125z"/>
<path d="M1922 3560 c-47 -29 -72 -76 -72 -136 0 -151 183 -210 276 -89 75 99
1 245 -125 245 -28 0 -59 -8 -79 -20z"/>
<path d="M3042 3560 c-47 -29 -72 -76 -72 -136 0 -95 69 -159 163 -151 86 7
141 71 140 160 -2 114 -133 186 -231 127z"/>
<path d="M1995 1898 c9 -106 55 -824 55 -859 l0 -29 510 0 c281 0 510 3 510 8
0 4 14 210 30 457 16 248 30 460 30 473 l0 22 -571 0 -571 0 7 -72z"/>
<path d="M1865 1918 c-31 -24 -77 -70 -102 -103 -42 -56 -117 -194 -109 -202
2 -2 16 1 32 7 36 14 96 4 128 -21 l24 -19 21 43 c12 24 37 62 56 84 33 38 35
46 35 110 0 78 -9 143 -20 143 -4 0 -33 -19 -65 -42z"/>
<path d="M3176 1923 c-3 -21 -6 -69 -6 -106 0 -64 2 -72 35 -110 19 -22 44
-60 56 -84 l21 -43 24 19 c32 25 92 35 128 21 16 -6 30 -9 32 -7 8 8 -69 153
-108 203 -39 50 -148 144 -168 144 -4 0 -10 -17 -14 -37z"/>
<path d="M1684 1570 c-33 -13 -54 -50 -54 -93 0 -52 15 -76 57 -93 46 -20 86
-10 118 28 70 84 -18 200 -121 158z"/>
<path d="M3341 1567 c-77 -45 -59 -173 28 -192 36 -8 95 16 110 43 19 36 13
98 -12 127 -27 32 -90 42 -126 22z"/>
<path d="M1630 1191 c0 -141 -1 -151 -19 -151 -10 0 -30 -9 -45 -21 -25 -20
-26 -25 -26 -118 0 -110 11 -131 67 -131 38 0 63 27 63 68 l0 32 55 0 c54 0
55 0 55 -30 0 -61 77 -93 120 -50 17 17 20 33 20 101 0 104 -23 148 -77 149
-23 0 -23 1 -23 149 l0 149 -41 -16 c-40 -15 -72 -12 -131 13 -17 7 -18 -4
-18 -144z"/>
<path d="M3300 1189 c0 -148 0 -149 -22 -149 -55 -1 -78 -45 -78 -149 0 -68 3
-84 20 -101 43 -43 120 -11 120 50 0 30 1 30 55 30 l55 0 0 -33 c0 -41 26 -67
67 -67 52 0 63 24 63 133 0 91 -1 96 -26 116 -15 12 -35 21 -45 21 -18 0 -19
10 -19 151 0 140 -1 151 -17 144 -60 -25 -92 -28 -132 -13 l-41 16 0 -149z"/>
<path d="M2170 854 c0 -88 2 -95 18 -88 36 16 101 16 133 0 18 -9 34 -16 36
-16 5 0 4 72 -3 139 l-7 61 -88 0 -89 0 0 -96z"/>
<path d="M2786 928 c-6 -25 -8 -178 -2 -178 2 0 17 7 32 15 34 17 97 20 125 5
18 -10 19 -7 19 85 l0 95 -84 0 c-78 0 -84 -1 -90 -22z"/>
<path d="M2214 720 c-34 -13 -64 -59 -64 -97 0 -26 8 -43 34 -69 38 -38 70
-43 116 -19 36 18 52 47 52 90 0 43 -16 72 -52 90 -32 17 -54 18 -86 5z"/>
<path d="M2824 714 c-57 -28 -73 -111 -30 -157 65 -70 176 -30 176 63 0 50
-22 85 -62 99 -40 14 -47 14 -84 -5z"/>
<path d="M2170 361 l0 -129 -27 -17 c-71 -45 -115 -105 -128 -178 l-7 -37 242
0 243 0 -6 46 c-6 54 -47 119 -94 149 l-32 20 -3 135 c-3 129 -4 135 -23 132
-65 -12 -108 -13 -135 -4 l-30 11 0 -128z"/>
<path d="M2767 484 c-4 -4 -7 -66 -7 -139 l0 -131 -28 -16 c-50 -30 -102 -122
-102 -180 0 -17 18 -18 241 -18 l242 0 -6 40 c-8 62 -52 128 -108 163 l-49 30
0 129 c0 128 0 129 -21 117 -22 -11 -109 -8 -140 5 -8 4 -18 3 -22 0z"/>
</g>
</svg>
